<svg xmlns="http://www.w3.org/2000/svg" xmlns:xlink="http://www.w3.org/1999/xlink" viewBox="0 0 850 370" width="100%" height="100%" fill="none">
  <defs>
    <!-- Grid Pattern (Brutalist visible lines) -->
    <pattern id="grid" width="34" height="34" patternUnits="userSpaceOnUse">
      <path d="M 34 0 L 0 0 0 34" fill="none" stroke="#ffffff" stroke-width="1" stroke-opacity="0.03" />
    </pattern>

    <!-- Scanline effect overlay -->
    <pattern id="scanlines" width="100" height="4" patternUnits="userSpaceOnUse">
      <line x1="0" y1="0" x2="100" y2="0" stroke="#000000" stroke-width="1.5" stroke-opacity="0.35" />
    </pattern>

    <!-- Typing Paths for animated textPath reveal at y=282 -->
    <path id="typePath0">
      <animate id="a0" attributeName="d" begin="0s;a3.end" dur="4200ms" fill="remove"
        values="m65,282 h0 ; m65,282 h700 ; m65,282 h700 ; m65,282 h0" keyTimes="0;0.45;0.88;1" />
    </path>
    <path id="typePath1">
      <animate id="a1" attributeName="d" begin="a0.end" dur="4200ms" fill="remove"
        values="m65,282 h0 ; m65,282 h700 ; m65,282 h700 ; m65,282 h0" keyTimes="0;0.45;0.88;1" />
    </path>
    <path id="typePath2">
      <animate id="a2" attributeName="d" begin="a1.end" dur="4200ms" fill="remove"
        values="m65,282 h0 ; m65,282 h700 ; m65,282 h700 ; m65,282 h0" keyTimes="0;0.45;0.88;1" />
    </path>
    <path id="typePath3">
      <animate id="a3" attributeName="d" begin="a2.end" dur="4200ms" fill="remove"
        values="m65,282 h0 ; m65,282 h700 ; m65,282 h700 ; m65,282 h0" keyTimes="0;0.45;0.88;1" />
    </path>
  </defs>

  <style>
    @import url('https://fonts.googleapis.com/css2?family=JetBrains+Mono:wght@400;600;700;800&amp;display=swap');

    .mono {
      font-family: 'JetBrains Mono', ui-monospace, SFMono-Regular, Menlo, Monaco, Consolas, 'Liberation Mono', monospace;
    }
    .terminal-fixed {
      font-family: 'JetBrains Mono', ui-monospace, SFMono-Regular, Menlo, Monaco, Consolas, 'Liberation Mono', monospace;
      font-size: 13.5px;
      fill: #888888;
      letter-spacing: -0.2px;
    }
    .terminal-dynamic {
      font-family: 'JetBrains Mono', ui-monospace, SFMono-Regular, Menlo, Monaco, Consolas, 'Liberation Mono', monospace;
      font-size: 14px;
      font-weight: 600;
      fill: #c82a2a;
      letter-spacing: -0.2px;
    }
    @keyframes blink {
      0%, 49% { opacity: 1; }
      50%, 100% { opacity: 0; }
    }
    .pulse-dot {
      animation: blink 1.2s infinite;
    }
  </style>

  <!-- Background base: #0d0d0d -->
  <rect width="850" height="370" rx="2" fill="#0d0d0d" />
  <rect width="850" height="370" fill="url(#grid)" />
  <rect width="850" height="370" fill="url(#scanlines)" pointer-events="none" />

  <!-- Outer brutalist double frame in crimson #c82a2a -->
  <rect x="10" y="10" width="830" height="350" fill="none" stroke="#c82a2a" stroke-width="1.5" />
  <rect x="14" y="14" width="822" height="342" fill="none" stroke="#c82a2a" stroke-width="0.5" stroke-opacity="0.3" />

  <!-- Watermark: Personal Monogram Logo from alexmatos.dev -->
  <g transform="translate(510, 18) scale(0.95)" opacity="0.08" fill="#c82a2a">
    <path d="M263 9h3l1 1h2l1 1h2v1h1l1 1h1l1 1 1 1 1 1 1 1h1v1l1 1 1 1 1 1v1h1l4 6 8 17 3 14v217l3 9a21 21 0 0 0 11 10l6 1v10l-45 25-3-1-3-2h-1v-1h-1l-2-2h-1l-1-1-2-1v-1h-1v-1l-3-2-5-8-2-7V98l-1-9v-2a52 52 0 0 0-5-21h-1l-1-2-1-1q-3-5-10-7l-7-2-11-2h-1l1 7v109h20v10l-20 11v81a29 29 0 0 0 6 20l9 5 4 1v1h1v9l-46 26q-9-4-17-12l-7-10v-1l-1-3V189h-38v78q0 16 4 22 3 7 13 7v13l-85 36-7-13q9 0 18-11 7-11 7-32V49q0-3 48-21t55-18q6 0 21 18l6 8 2-1q-1 0 0 0h1v-1l3-1 5-3zM140 49q-9 0-17 7v123l25-11h13V80q0-30-21-31"/>
    <path d="M165 189H35v-9l21-13h109z"/>
  </g>

  <!-- Top-left Corner Badge: INITIUM -->
  <rect x="24" y="2" width="75" height="20" fill="#c82a2a" />
  <text x="61.5" y="16" class="mono" font-size="10" font-weight="bold" fill="#0d0d0d" text-anchor="middle" letter-spacing="1.5">INITIUM</text>

  <!-- Top-right Telemetry in JetBrains Mono -->
  <circle cx="595" cy="23" r="3.5" fill="#c82a2a" class="pulse-dot" />
  <text x="820" y="26" class="mono" font-size="9.5" fill="#c82a2a" opacity="0.85" text-anchor="end" letter-spacing="1">[ NODE_CONNECTION: ACTIVE ]  LATENCY: 12ms</text>

  <!-- Line 1: Title Part 1 - ALEXANDER (Pirata One pure vector path) -->
  <path d="M51.40 88.06L51.40 88.06L51.40 49.03Q51.40 48.56 59.15 45.67Q66.90 42.78 68.06 42.78Q69.22 42.78 71.56 45.56Q73.91 48.35 73.91 50.60L73.91 50.60L73.91 68.41L77.24 68.41L77.24 70.04L73.91 71.74L73.91 84.94Q73.91 88.68 77.17 89.36L77.17 89.36L77.17 90.85L69.76 95.00Q68.26 94.39 66.97 92.99Q65.68 91.60 65.68 90.38L65.68 90.38L65.68 71.74L59.56 71.74L59.56 84.53Q59.56 87.04 60.10 88.13Q60.65 89.22 62.35 89.22L62.35 89.22L62.35 91.33L48.41 97.18L47.32 95.00Q48.82 95.00 50.18 93.23L50.18 93.23Q51.40 91.53 51.40 88.06M62.21 49.10L62.21 49.10Q60.85 49.10 59.56 50.12L59.56 50.12L59.56 70.18L63.57 68.41L65.68 68.41L65.68 54.13Q65.68 49.10 62.21 49.10M80.71 84.73L80.71 84.73L80.71 55.22Q80.71 52.70 80.16 51.62Q79.62 50.53 77.92 50.53L77.92 50.53L77.92 48.42L91.86 42.57L92.95 44.75Q91.45 44.75 90.09 46.52L90.09 46.52Q88.87 48.22 88.87 51.68L88.87 51.68L88.87 79.50Q88.87 84.94 89.82 86.02L89.82 86.02Q91.45 88.06 93.02 88.47L93.02 88.47Q96.62 89.29 100.97 89.29L100.97 89.29L100.97 91.19Q91.93 95.00 90.67 95.00Q89.41 95.00 87.24 93.88Q85.06 92.76 82.88 90.24Q80.71 87.72 80.71 84.73M115.12 49.24L115.12 49.24Q114.44 49.24 113.89 49.92L113.89 49.92L113.89 67.87L123.48 67.87L123.48 69.50L120.08 71.20L113.89 71.20L113.89 78.00Q113.89 85.55 115.39 86.84L115.39 86.84Q117.63 88.74 120.28 89.02Q122.94 89.29 126.00 89.29L126.00 89.29L126.00 91.26Q125.66 91.26 120.96 93.13Q116.27 95.00 115.25 95.00L115.25 95.00Q113.14 95.00 109.44 91.74Q105.73 88.47 105.73 84.66L105.73 84.66L105.73 48.90Q105.73 48.42 113.52 45.53Q121.30 42.64 122.46 42.64L122.46 42.64Q122.87 42.64 123.41 44.61Q123.96 46.58 124.67 49.37Q125.38 52.16 126.17 53.49Q126.95 54.81 129.12 54.81L129.12 54.81L129.12 56.17Q127.63 56.85 124.06 58.59Q120.49 60.32 120.22 60.32L120.22 60.32Q119.20 60.32 117.63 54.78Q116.07 49.24 115.12 49.24M131.30 48.22L131.30 48.22L131.30 46.79L138.37 42.64L141.02 42.64L148.44 64.67L149.93 63.99L149.93 52.50Q149.93 50.53 149.25 49.41Q148.57 48.28 147.89 48.08L147.89 48.08L147.14 47.94L147.14 46.45L153.67 42.57Q154.22 42.57 155.98 44.10Q157.75 45.63 157.75 46.99L157.75 46.99L157.75 63.72Q157.75 64.88 149.46 67.87L149.46 67.87L156.12 87.93Q156.46 88.88 157.45 89.12Q158.43 89.36 160.40 89.36L160.40 89.36L160.40 90.85L152.99 95.00L150.00 95.00L142.11 71.20L140.68 71.88L140.68 85.07Q140.68 87.04 141.36 88.17Q142.04 89.29 142.72 89.42L142.72 89.42L143.47 89.63L143.47 91.12L136.94 95.00Q136.40 95.00 134.63 93.47Q132.86 91.94 132.86 90.58L132.86 90.58L132.86 72.15Q132.86 71.61 135.65 70.28Q138.44 68.96 141.02 68.00L141.02 68.00L135.18 50.39Q134.84 49.37 134.16 48.86Q133.48 48.35 132.93 48.28Q132.39 48.22 131.30 48.22M164.21 88.06L164.21 88.06L164.21 49.03Q164.21 48.56 171.96 45.67Q179.72 42.78 180.87 42.78Q182.03 42.78 184.37 45.56Q186.72 48.35 186.72 50.60L186.72 50.60L186.72 68.41L190.05 68.41L190.05 70.04L186.72 71.74L186.72 84.94Q186.72 88.68 189.98 89.36L189.98 89.36L189.98 90.85L182.57 95.00Q181.08 94.39 179.78 92.99Q178.49 91.60 178.49 90.38L178.49 90.38L178.49 71.74L172.37 71.74L172.37 84.53Q172.37 87.04 172.92 88.13Q173.46 89.22 175.16 89.22L175.16 89.22L175.16 91.33L161.22 97.18L160.13 95.00Q161.63 95.00 162.99 93.23L162.99 93.23Q164.21 91.53 164.21 88.06M175.02 49.10L175.02 49.10Q173.66 49.10 172.37 50.12L172.37 50.12L172.37 70.18L176.38 68.41L178.49 68.41L178.49 54.13Q178.49 49.10 175.02 49.10M193.52 87.25L193.52 87.25L193.52 53.72Q193.52 51.48 192.57 49.85Q191.62 48.22 190.19 48.22L190.19 48.22L190.19 46.72Q190.66 46.65 197.60 42.57L197.60 42.57Q198.08 42.71 198.76 42.95Q199.44 43.18 200.56 44.27Q201.68 45.36 201.68 46.79L201.68 46.79Q202.09 46.58 203.99 45.50L203.99 45.50Q209.02 42.64 209.98 42.64L209.98 42.64Q212.15 42.64 214.06 45.50Q215.96 48.35 215.96 50.73L215.96 50.73L215.96 84.94Q215.96 88.68 219.29 89.36L219.29 89.36L219.29 90.85L211.88 95.00Q210.38 94.39 209.09 92.99Q207.80 91.60 207.80 90.38L207.80 90.38L207.80 57.06Q207.80 52.77 206.54 51.21Q205.28 49.64 201.68 49.64L201.68 49.64L201.68 84.53Q201.68 87.25 202.36 88.23Q203.04 89.22 204.47 89.22L204.47 89.22L204.47 91.33L190.53 97.18L189.44 95.00Q190.80 95.00 192.09 93.37L192.09 93.37Q193.52 91.46 193.52 87.25M245.27 50.46L245.27 50.46L245.27 88.68Q245.27 89.22 237.82 92.11Q230.38 95.00 228.71 95.00Q227.04 95.00 224.90 92.08Q222.76 89.15 222.76 85.07L222.76 85.07L222.76 52.43Q222.76 48.76 219.97 48.15L219.97 48.15L219.97 46.65L226.84 42.78Q228.34 43.39 229.63 44.78Q230.92 46.18 230.92 47.40L230.92 47.40L239.35 42.64Q240.58 42.64 242.92 45.43Q245.27 48.22 245.27 50.46M234.39 88.74L234.39 88.74Q235.68 88.74 237.04 87.66L237.04 87.66L237.04 55.56Q237.04 50.73 233.57 50.73L233.57 50.73Q232.21 50.73 230.92 51.75L230.92 51.75L230.92 83.71Q230.92 88.74 234.39 88.74M261.45 49.24L261.45 49.24Q260.77 49.24 260.23 49.92L260.23 49.92L260.23 67.87L269.82 67.87L269.82 69.50L266.42 71.20L260.23 71.20L260.23 78.00Q260.23 85.55 261.72 86.84L261.72 86.84Q263.97 88.74 266.62 89.02Q269.27 89.29 272.33 89.29L272.33 89.29L272.33 91.26Q271.99 91.26 267.30 93.13Q262.61 95.00 261.59 95.00L261.59 95.00Q259.48 95.00 255.77 91.74Q252.07 88.47 252.07 84.66L252.07 84.66L252.07 48.90Q252.07 48.42 259.85 45.53Q267.64 42.64 268.80 42.64L268.80 42.64Q269.20 42.64 269.75 44.61Q270.29 46.58 271.01 49.37Q271.72 52.16 272.50 53.49Q273.28 54.81 275.46 54.81L275.46 54.81L275.46 56.17Q273.96 56.85 270.39 58.59Q266.82 60.32 266.55 60.32L266.55 60.32Q265.53 60.32 263.97 54.78Q262.40 49.24 261.45 49.24M290.35 49.30L290.35 49.30Q289.13 49.30 287.70 50.32L287.70 50.32L287.70 72.42Q289.47 72.42 291.64 71.30Q293.82 70.18 293.82 68.96L293.82 68.96L293.82 54.34Q293.82 49.30 290.35 49.30M279.54 88.06L279.54 88.06L279.54 52.84Q279.54 48.69 276.75 48.15L276.75 48.15L276.75 46.65L283.62 42.78Q284.98 43.32 286.34 44.75Q287.70 46.18 287.70 47.33L287.70 47.33Q295.18 42.78 296.27 42.78Q297.36 42.78 299.70 45.56Q302.05 48.35 302.05 50.60L302.05 50.60L302.05 69.70Q302.05 70.25 294.64 73.17L294.64 73.17Q297.76 83.71 301.98 87.38L301.98 87.38Q303.88 88.95 305.86 88.95L305.86 88.95L305.86 90.99Q299.53 95.00 297.83 95.00L297.83 95.00Q295.59 95.00 292.15 86.57Q288.72 78.14 288.45 75.42L288.45 75.42L287.70 75.62L287.70 84.53Q287.70 87.04 288.24 88.13Q288.79 89.22 290.49 89.22L290.49 89.22L290.49 91.33L276.55 97.18L275.46 95.00Q276.96 95.00 278.32 93.23L278.32 93.23Q279.54 91.53 279.54 88.06" fill="#e0e0e0" />

  <!-- Line 2: Title Part 2 - MATOS (Pirata One pure vector path) -->
  <path d="M51.40 151.06L51.40 151.06L51.40 116.72Q51.40 114.48 50.45 112.85Q49.50 111.22 48.07 111.22L48.07 111.22L48.07 109.72Q48.54 109.65 55.48 105.57L55.48 105.57Q55.96 105.71 56.64 105.95Q57.32 106.18 58.44 107.27Q59.56 108.36 59.56 109.79L59.56 109.79Q59.97 109.58 61.87 108.50L61.87 108.50Q66.90 105.64 68.09 105.64Q69.28 105.64 70.75 106.86Q72.21 108.09 72.96 109.79L72.96 109.79Q73.09 109.72 75.74 108.36L75.74 108.36Q81.05 105.64 82.14 105.64L82.14 105.64Q84.31 105.64 86.22 108.50Q88.12 111.35 88.12 113.73L88.12 113.73L88.12 147.94Q88.12 151.68 91.45 152.36L91.45 152.36L91.45 153.85L84.04 158.00Q82.54 157.39 81.25 155.99Q79.96 154.60 79.96 153.38L79.96 153.38L79.96 120.06Q79.96 115.98 78.63 114.38Q77.31 112.78 73.84 112.64L73.84 112.64L73.84 147.94Q73.84 151.68 77.17 152.36L77.17 152.36L77.17 153.85L69.76 158.00Q68.26 157.39 66.97 155.99Q65.68 154.60 65.68 153.38L65.68 153.38L65.68 120.06Q65.68 115.77 64.42 114.21Q63.16 112.64 59.56 112.64L59.56 112.64L59.56 147.53Q59.56 150.04 60.10 151.13Q60.65 152.22 62.35 152.22L62.35 152.22L62.35 154.33L48.41 160.18L47.32 158.00Q48.82 158.00 50.18 156.23L50.18 156.23Q51.40 154.53 51.40 151.06M94.92 151.06L94.92 151.06L94.92 112.03Q94.92 111.56 102.67 108.67Q110.42 105.78 111.58 105.78Q112.74 105.78 115.08 108.56Q117.43 111.35 117.43 113.60L117.43 113.60L117.43 131.41L120.76 131.41L120.76 133.04L117.43 134.74L117.43 147.94Q117.43 151.68 120.69 152.36L120.69 152.36L120.69 153.85L113.28 158.00Q111.78 157.39 110.49 155.99Q109.20 154.60 109.20 153.38L109.20 153.38L109.20 134.74L103.08 134.74L103.08 147.53Q103.08 150.04 103.62 151.13Q104.17 152.22 105.87 152.22L105.87 152.22L105.87 154.33L91.93 160.18L90.84 158.00Q92.34 158.00 93.70 156.23L93.70 156.23Q94.92 154.53 94.92 151.06M105.73 112.10L105.73 112.10Q104.37 112.10 103.08 113.12L103.08 113.12L103.08 133.18L107.09 131.41L109.20 131.41L109.20 117.13Q109.20 112.10 105.73 112.10M129.12 151.06L129.12 151.06L129.12 115.02L131.23 112.98L126.95 112.98Q122.80 112.98 122.26 115.23L122.26 115.23L120.76 115.23L116.88 109.65Q117.70 108.36 118.99 107.34Q120.28 106.32 121.51 106.32L121.51 106.32L139.46 106.32Q143.61 106.32 144.15 104.08L144.15 104.08L145.65 104.08L149.52 109.65Q148.71 110.94 147.42 111.96Q146.12 112.98 144.90 112.98L144.90 112.98L137.28 112.98L137.28 147.53Q137.28 150.04 137.83 151.13Q138.37 152.22 140.07 152.22L140.07 152.22L140.07 154.33L126.13 160.18L125.04 158.00Q126.54 158.00 127.90 156.23L127.90 156.23Q129.12 154.53 129.12 151.06M149.05 148.07L149.05 148.07L149.05 111.90Q149.05 111.42 156.80 108.53Q164.55 105.64 165.71 105.64Q166.86 105.64 169.21 108.43Q171.56 111.22 171.56 113.46L171.56 113.46L171.56 151.68Q171.56 152.22 164.11 155.11Q156.66 158.00 155.00 158.00Q153.33 158.00 151.19 155.08Q149.05 152.15 149.05 148.07M160.68 151.74L160.68 151.74Q161.97 151.74 163.33 150.66L163.33 150.66L163.33 117.00Q163.33 111.96 159.86 111.96L159.86 111.96Q158.50 111.96 157.21 112.98L157.21 112.98L157.21 146.71Q157.21 151.74 160.68 151.74M182.50 136.31L182.50 136.31Q180.80 136.31 179.58 133.72Q178.36 131.14 178.36 127.40L178.36 127.40L178.36 113.26Q178.36 111.96 185.50 108.80Q192.64 105.64 193.72 105.64L193.72 105.64Q194.54 105.64 196.04 108.36L196.04 108.36Q196.38 109.04 197.02 110.20Q197.67 111.35 198.08 112.10L198.08 112.10Q198.96 113.73 200.32 113.73L200.32 113.73L200.32 115.09Q199.23 115.57 197.40 116.52L197.40 116.52Q193.11 118.90 192.77 118.90L192.77 118.90Q191.75 118.90 190.22 114.89Q188.69 110.88 187.74 110.88L187.74 110.88Q186.52 110.88 186.52 112.92L186.52 112.92L186.52 128.08Q186.52 130.80 187.74 130.80L187.74 130.80Q188.01 130.80 191.96 129.03Q195.90 127.26 196.72 127.26L196.72 127.26Q198.35 127.26 199.61 129.88Q200.86 132.50 200.86 136.58L200.86 136.58L200.86 151.06Q200.86 152.36 193.08 155.52Q185.29 158.68 184.14 158.68L184.14 158.68Q183.66 158.68 183.05 157.52Q182.44 156.37 181.45 154.23Q180.46 152.08 179.68 150.66Q178.90 149.23 177.54 149.23L177.54 149.23L177.54 147.87Q178.63 147.39 180.40 146.44L180.40 146.44Q184.75 144.06 185.09 144.06L185.09 144.06Q186.11 144.06 187.98 148.75Q189.85 153.44 190.80 153.44L190.80 153.44Q191.48 153.44 192.09 152.90Q192.70 152.36 192.70 151.40L192.70 151.40L192.70 136.10Q192.70 133.04 191.00 133.04L191.00 133.04Q190.46 133.04 186.72 134.68Q182.98 136.31 182.50 136.31" fill="#e0e0e0" />

  <!-- Line 3: Subtitle - WEBDev & UXDesign (Playfair Display pure vector path, aligned left underneath title) -->
  <path d="M78.84 181.93L78.84 181.93L78.84 182.61Q78.19 182.74 77.41 183.37Q76.63 184.00 76.15 185.57L76.15 185.57L69.73 206.17Q69.66 206.17 69.59 206.17Q69.52 206.17 69.45 206.17L69.45 206.17Q69.39 206.17 69.32 206.17Q69.25 206.17 69.18 206.17L69.18 206.17L61.97 184.78Q61.53 183.46 60.99 183.05Q60.44 182.64 59.97 182.61L59.97 182.61L59.97 181.93Q60.58 181.96 61.50 182.00Q62.42 182.03 63.27 182.03L63.27 182.03Q64.59 182.03 65.75 182.00Q66.90 181.96 67.62 181.93L67.62 181.93L67.62 182.61Q66.60 182.64 66.00 182.81Q65.41 182.98 65.32 183.56Q65.24 184.14 65.65 185.46L65.65 185.46L70.71 201.14L70.24 201.55L74.72 187.44Q75.34 185.57 75.28 184.53Q75.23 183.49 74.52 183.07Q73.81 182.64 72.38 182.61L72.38 182.61L72.38 181.93Q73.36 181.96 74.38 182.00Q75.40 182.03 76.29 182.03L76.29 182.03Q77.17 182.03 77.75 182.00Q78.33 181.96 78.84 181.93M55.07 181.93L55.07 181.93L55.07 182.61Q54.19 182.68 53.80 182.95Q53.41 183.22 53.42 183.81Q53.44 184.41 53.78 185.46L53.78 185.46L59.05 201.55L58.20 202.40L62.96 187.20L63.47 188.01L57.86 206.17Q57.79 206.17 57.72 206.17Q57.66 206.17 57.59 206.17L57.59 206.17Q57.52 206.17 57.45 206.17Q57.38 206.17 57.32 206.17L57.32 206.17L50.11 184.78Q49.67 183.46 48.99 183.05Q48.31 182.64 47.76 182.61L47.76 182.61L47.76 181.93Q48.44 181.96 49.45 182.00Q50.45 182.03 51.40 182.03L51.40 182.03Q52.52 182.03 53.49 182.00Q54.46 181.96 55.07 181.93M97.16 181.93L97.16 181.93Q97.03 183.12 96.98 184.24Q96.93 185.36 96.93 185.94L96.93 185.94Q96.93 186.55 96.96 187.11Q96.99 187.67 97.03 188.05L97.03 188.05L96.25 188.05Q96.04 186.04 95.67 184.87Q95.29 183.70 94.39 183.20Q93.49 182.71 91.69 182.71L91.69 182.71L88.87 182.71Q87.71 182.71 87.12 182.90Q86.52 183.08 86.32 183.68Q86.11 184.27 86.11 185.53L86.11 185.53L86.11 202.40Q86.11 203.62 86.32 204.23Q86.52 204.84 87.12 205.03Q87.71 205.22 88.87 205.22L88.87 205.22L91.35 205.22Q93.49 205.22 94.60 204.64Q95.70 204.06 96.20 202.75Q96.69 201.44 96.93 199.20L96.93 199.20L97.71 199.20Q97.61 200.12 97.61 201.65L97.61 201.65Q97.61 202.29 97.66 203.50Q97.71 204.71 97.84 206.00L97.84 206.00Q96.11 205.93 93.93 205.91Q91.76 205.90 90.06 205.90L90.06 205.90Q89.31 205.90 88.14 205.90Q86.96 205.90 85.60 205.91Q84.24 205.93 82.85 205.95Q81.46 205.97 80.20 206.00L80.20 206.00L80.20 205.32Q81.35 205.25 81.95 205.05Q82.54 204.84 82.75 204.23Q82.95 203.62 82.95 202.40L82.95 202.40L82.95 185.53Q82.95 184.27 82.75 183.68Q82.54 183.08 81.95 182.86Q81.35 182.64 80.20 182.61L80.20 182.61L80.20 181.93Q81.46 181.96 82.85 181.98Q84.24 182.00 85.60 182.01Q86.96 182.03 88.14 182.03Q89.31 182.03 90.06 182.03L90.06 182.03Q91.62 182.03 93.61 182.01Q95.60 182.00 97.16 181.93M85.09 193.56L91.32 193.56Q91.32 193.56 91.32 193.90Q91.32 194.24 91.32 194.24L91.32 194.24L85.09 194.24Q85.09 194.24 85.09 193.90Q85.09 193.56 85.09 193.56L85.09 193.56M91.52 189.07L92.30 189.07Q92.17 191.01 92.18 192.03Q92.20 193.05 92.20 193.90L92.20 193.90Q92.20 194.75 92.23 195.77Q92.27 196.79 92.40 198.72L92.40 198.72L91.62 198.72Q91.49 197.64 91.30 196.60Q91.11 195.56 90.48 194.90Q89.85 194.24 88.36 194.24L88.36 194.24L88.36 193.56Q89.48 193.56 90.08 193.10Q90.67 192.64 90.94 191.92Q91.21 191.21 91.32 190.44Q91.42 189.68 91.52 189.07L91.52 189.07M100.90 182.61L100.90 181.93Q101.62 181.96 102.77 182.00Q103.93 182.03 105.05 182.03L105.05 182.03Q106.65 182.03 108.11 182.00Q109.57 181.96 110.19 181.96L110.19 181.96Q113.76 181.96 115.56 183.46Q117.36 184.95 117.36 187.30L117.36 187.30Q117.36 188.49 116.87 189.63Q116.37 190.77 115.24 191.70Q114.10 192.64 112.19 193.22L112.19 193.22L112.19 193.28Q114.88 193.62 116.39 194.56Q117.90 195.49 118.52 196.75Q119.13 198.01 119.13 199.40L119.13 199.40Q119.13 201.34 118.16 202.82Q117.19 204.30 115.35 205.15Q113.52 206.00 110.97 206.00L110.97 206.00Q110.22 206.00 108.72 205.95Q107.23 205.90 105.12 205.90L105.12 205.90Q103.93 205.90 102.77 205.91Q101.62 205.93 100.90 206.00L100.90 206.00L100.90 205.32Q102.06 205.25 102.66 205.05Q103.25 204.84 103.45 204.23Q103.66 203.62 103.66 202.40L103.66 202.40L103.66 185.53Q103.66 184.27 103.45 183.68Q103.25 183.08 102.66 182.86Q102.06 182.64 100.90 182.61L100.90 182.61M109.34 182.61L109.34 182.61Q107.77 182.61 107.30 183.19Q106.82 183.76 106.82 185.53L106.82 185.53L106.82 202.40Q106.82 203.59 107.02 204.20Q107.23 204.81 107.77 205.01Q108.32 205.22 109.37 205.22L109.37 205.22Q112.70 205.22 114.22 203.67Q115.73 202.12 115.73 199.27L115.73 199.27Q115.73 196.65 114.32 195.22Q112.91 193.79 109.68 193.79L109.68 193.79L106.17 193.79Q106.17 193.79 106.17 193.50Q106.17 193.22 106.17 193.22L106.17 193.22L109.10 193.22Q111.10 193.22 112.19 192.45Q113.28 191.69 113.69 190.41Q114.10 189.14 114.10 187.67L114.10 187.67Q114.10 185.16 112.99 183.88Q111.89 182.61 109.34 182.61" fill="#c82a2a" />
  <path d="M131.37 181.93L131.37 181.93Q137.45 181.93 140.41 184.97Q143.37 188.01 143.37 193.69L143.37 193.69Q143.37 197.40 141.93 200.17Q140.48 202.94 137.73 204.47Q134.97 206.00 131.06 206.00L131.06 206.00Q130.55 206.00 129.70 205.97Q128.85 205.93 127.95 205.91Q127.05 205.90 126.30 205.90L126.30 205.90Q125.11 205.90 123.96 205.91Q122.80 205.93 122.09 206.00L122.09 206.00L122.09 205.32Q123.24 205.25 123.84 205.05Q124.43 204.84 124.64 204.23Q124.84 203.62 124.84 202.40L124.84 202.40L124.84 185.53Q124.84 184.27 124.64 183.68Q124.43 183.08 123.84 182.86Q123.24 182.64 122.09 182.61L122.09 182.61L122.09 181.93Q122.80 181.96 123.96 182.01Q125.11 182.06 126.23 182.03L126.23 182.03Q127.42 182.00 128.92 181.96Q130.42 181.93 131.37 181.93M130.52 182.54L130.52 182.54Q128.95 182.54 128.48 183.12Q128.00 183.70 128.00 185.46L128.00 185.46L128.00 202.46Q128.00 204.23 128.50 204.81Q128.99 205.39 130.55 205.39L130.55 205.39Q134.26 205.39 136.30 204.04Q138.34 202.70 139.15 200.12Q139.97 197.53 139.97 193.83L139.97 193.83Q139.97 190.02 139.07 187.52Q138.17 185.02 136.11 183.78Q134.05 182.54 130.52 182.54M154.49 188.01L154.49 188.01Q157.48 188.01 159.16 189.83Q160.85 191.65 160.85 195.49L160.85 195.49L148.84 195.49L148.81 194.85L157.58 194.85Q157.65 193.18 157.31 191.77Q156.97 190.36 156.24 189.51Q155.51 188.66 154.35 188.66L154.35 188.66Q152.79 188.66 151.58 190.22Q150.37 191.79 150.14 195.19L150.14 195.19L150.24 195.32Q150.17 195.83 150.14 196.45Q150.10 197.06 150.10 197.67L150.10 197.67Q150.10 199.98 150.85 201.65Q151.60 203.31 152.81 204.18Q154.01 205.05 155.30 205.05L155.30 205.05Q156.32 205.05 157.24 204.72Q158.16 204.40 158.94 203.65Q159.72 202.91 160.30 201.65L160.30 201.65L160.98 201.92Q160.61 203.04 159.76 204.10Q158.91 205.15 157.62 205.81Q156.32 206.48 154.62 206.48L154.62 206.48Q152.18 206.48 150.43 205.35Q148.67 204.23 147.74 202.24Q146.80 200.25 146.80 197.67L146.80 197.67Q146.80 194.68 147.76 192.52Q148.71 190.36 150.44 189.19Q152.18 188.01 154.49 188.01M178.97 188.49L178.97 188.49L178.97 189.17Q178.32 189.24 177.78 189.75Q177.23 190.26 176.76 191.55L176.76 191.55L171.18 206.17Q171.05 206.17 170.91 206.17Q170.77 206.17 170.60 206.17L170.60 206.17L164.35 191.11Q163.80 189.78 163.28 189.49Q162.75 189.20 162.38 189.20L162.38 189.20L162.38 188.49Q163.06 188.52 163.79 188.57Q164.52 188.63 165.37 188.63L165.37 188.63Q166.42 188.63 167.60 188.59Q168.77 188.56 169.79 188.49L169.79 188.49L169.79 189.20Q168.94 189.20 168.28 189.32Q167.61 189.44 167.43 189.99Q167.24 190.53 167.75 191.86L167.75 191.86L172.00 202.36L171.79 202.53L175.67 192.37Q176.11 191.24 176.03 190.58Q175.94 189.92 175.35 189.58Q174.75 189.24 173.53 189.17L173.53 189.17L173.53 188.49Q174.14 188.52 174.58 188.54Q175.02 188.56 175.45 188.57Q175.87 188.59 176.38 188.59L176.38 188.59Q177.17 188.59 177.80 188.56Q178.42 188.52 178.97 188.49" fill="#e0e0e0" />
  <path d="M197.97 182.13L197.97 182.13Q199.27 182.13 200.12 182.42Q200.97 182.71 201.51 183.15L201.51 183.15Q201.95 183.49 202.22 183.90Q202.50 184.31 202.63 184.72Q202.77 185.12 202.77 185.50L202.77 185.50Q202.77 186.35 202.17 186.82Q201.58 187.30 200.86 187.30L200.86 187.30Q200.18 187.30 199.64 186.86Q199.10 186.42 199.10 185.60L199.10 185.60Q199.10 184.85 199.61 184.32Q200.12 183.80 200.90 183.73L200.90 183.73Q200.76 183.29 200.07 182.97Q199.37 182.64 198.31 182.64L198.31 182.64Q196.58 182.64 195.48 183.68Q194.37 184.72 194.37 186.69L194.37 186.69Q194.37 187.64 194.73 188.63Q195.08 189.61 196.10 190.56L196.10 190.56Q196.68 190.46 197.29 190.41Q197.91 190.36 198.21 190.36L198.21 190.36Q198.82 190.36 199.20 190.56Q199.57 190.77 199.57 191.14L199.57 191.14Q199.57 191.45 199.32 191.62Q199.06 191.79 198.62 191.79L198.62 191.79Q197.97 191.79 197.26 191.50Q196.55 191.21 196.14 191.04L196.14 191.04Q194.17 191.62 192.94 192.93Q191.72 194.24 191.72 196.62L191.72 196.62Q191.72 198.96 192.94 200.59Q194.17 202.23 196.22 203.09Q198.28 203.96 200.83 203.96L200.83 203.96Q202.63 203.96 204.25 203.53Q205.86 203.11 207.10 202.29Q208.34 201.48 209.06 200.34Q209.77 199.20 209.77 197.74L209.77 197.74Q209.77 197.09 209.50 196.09Q209.23 195.09 208.38 194.12Q207.53 193.15 205.76 192.60L205.76 192.60L206.17 192.26Q208.65 193.01 209.70 194.66Q210.76 196.31 210.76 198.35L210.76 198.35Q210.76 200.39 209.53 202.26Q208.31 204.13 206.00 205.30Q203.69 206.48 200.39 206.48L200.39 206.48Q198.18 206.48 196.19 205.90Q194.20 205.32 192.67 204.22Q191.14 203.11 190.26 201.55Q189.37 199.98 189.37 198.01L189.37 198.01Q189.37 196.17 190.09 194.87Q190.80 193.56 191.85 192.71Q192.91 191.86 193.96 191.40Q195.02 190.94 195.66 190.77L195.66 190.77Q194.54 190.26 193.78 189.56Q193.01 188.86 192.62 188.03Q192.23 187.20 192.23 186.38L192.23 186.38Q192.23 185.57 192.60 184.80Q192.98 184.04 193.69 183.42Q194.40 182.81 195.48 182.47Q196.55 182.13 197.97 182.13M210.35 181.45L210.35 181.45Q212.46 181.45 213.89 182.66Q215.31 183.87 215.31 186.04L215.31 186.04Q215.31 187.20 214.89 188.10Q214.46 189.00 213.73 189.68Q213.00 190.36 212.08 190.80L212.08 190.80Q211.30 191.18 210.03 191.62Q208.75 192.06 207.31 192.50Q205.86 192.94 204.55 193.37Q203.24 193.79 202.43 194.10L202.43 194.10Q201.17 194.58 200.30 195.27Q199.44 195.97 199.44 197.06L199.44 197.06Q199.44 197.94 199.95 198.55Q200.46 199.17 201.19 199.47Q201.92 199.78 202.56 199.78L202.56 199.78Q202.87 199.78 203.33 199.69Q203.79 199.61 204.16 199.44Q204.54 199.27 204.60 199.03L204.60 199.03Q204.06 198.93 203.53 198.54Q203.01 198.15 203.01 197.30L203.01 197.30Q203.01 196.48 203.55 196.00Q204.09 195.53 204.88 195.53L204.88 195.53Q205.69 195.53 206.19 196.04Q206.68 196.55 206.68 197.36L206.68 197.36Q206.68 198.32 206.05 198.98Q205.42 199.64 204.49 199.97Q203.55 200.29 202.63 200.29L202.63 200.29Q201.68 200.29 200.69 199.88Q199.71 199.47 199.06 198.60Q198.42 197.74 198.42 196.31L198.42 196.31Q198.42 195.12 198.94 194.20Q199.47 193.28 200.52 192.57Q201.58 191.86 203.11 191.35L203.11 191.35Q204.13 191.01 205.59 190.60Q207.05 190.19 208.60 189.71Q210.15 189.24 211.40 188.66L211.40 188.66Q213.10 187.88 213.72 187.06Q214.33 186.25 214.33 185.40L214.33 185.40Q214.33 184.41 213.78 183.65Q213.24 182.88 212.34 182.42Q211.44 181.96 210.38 181.96L210.38 181.96Q209.98 181.96 209.70 182.03Q209.43 182.10 209.36 182.27L209.36 182.27Q209.84 182.51 210.08 182.95Q210.32 183.39 210.32 183.83L210.32 183.83Q210.32 184.55 209.76 185.02Q209.19 185.50 208.41 185.50L208.41 185.50Q207.77 185.50 207.19 185.07Q206.61 184.65 206.61 183.80L206.61 183.80Q206.61 182.91 207.21 182.40Q207.80 181.89 208.67 181.67Q209.53 181.45 210.35 181.45" fill="#c82a2a" opacity="0.8" />
  <path d="M246.73 181.93L246.73 181.93L246.73 182.61Q245.57 182.64 244.98 182.95Q244.38 183.25 244.18 183.93Q243.98 184.61 243.98 185.87L243.98 185.87L243.98 196.11Q243.98 198.49 243.67 200.25Q243.36 202.02 242.58 203.31L242.58 203.31Q241.73 204.74 240.10 205.61Q238.47 206.48 236.36 206.48L236.36 206.48Q234.73 206.48 233.25 206.09Q231.77 205.69 230.65 204.64L230.65 204.64Q229.66 203.69 229.10 202.63Q228.54 201.58 228.34 200.05Q228.13 198.52 228.13 196.21L228.13 196.21L228.13 185.53Q228.13 184.27 227.93 183.68Q227.72 183.08 227.13 182.86Q226.53 182.64 225.38 182.61L225.38 182.61L225.38 181.93Q226.09 181.96 227.25 182.00Q228.40 182.03 229.73 182.03L229.73 182.03Q230.92 182.03 232.09 182.00Q233.27 181.96 234.05 181.93L234.05 181.93L234.05 182.61Q232.89 182.64 232.30 182.86Q231.70 183.08 231.50 183.68Q231.29 184.27 231.29 185.53L231.29 185.53L231.29 196.79Q231.29 198.52 231.46 200.07Q231.63 201.61 232.16 202.79Q232.69 203.96 233.78 204.62Q234.86 205.29 236.67 205.29L236.67 205.29Q239.25 205.29 240.66 204.15Q242.07 203.01 242.63 201.00Q243.19 199.00 243.19 196.48L243.19 196.48L243.19 185.87Q243.19 184.61 242.91 183.93Q242.62 183.25 241.94 182.95Q241.26 182.64 240.10 182.61L240.10 182.61L240.10 181.93Q240.71 181.96 241.72 182.00Q242.72 182.03 243.57 182.03L243.57 182.03Q244.45 182.03 245.32 182.00Q246.19 181.96 246.73 181.93M255.94 181.93L255.94 181.93L255.94 182.64Q254.24 182.64 253.87 183.00Q253.50 183.36 253.97 184.14L253.97 184.14L266.69 203.59Q267.33 204.57 267.78 204.90Q268.22 205.22 268.97 205.29L268.97 205.29L268.97 206.00Q268.52 205.97 267.73 205.91Q266.93 205.86 266.04 205.86L266.04 205.86Q264.68 205.86 263.31 205.91Q261.93 205.97 261.25 206.00L261.25 206.00L261.25 205.29Q262.95 205.29 263.42 205.08Q263.90 204.88 263.42 204.13L263.42 204.13L250.50 184.34Q249.86 183.36 249.43 183.02Q249.01 182.68 248.23 182.64L248.23 182.64L248.23 181.93Q248.67 181.96 249.48 182.01Q250.30 182.06 251.15 182.06L251.15 182.06Q252.54 182.06 253.77 182.01Q254.99 181.96 255.94 181.93M252.03 202.19L257.81 193.59Q257.81 193.59 257.88 193.81Q257.95 194.03 258.04 194.25Q258.12 194.47 258.12 194.47L258.12 194.47L253.94 200.70Q252.71 202.53 252.66 203.52Q252.61 204.50 253.43 204.90Q254.24 205.29 255.67 205.32L255.67 205.32L255.67 206.00Q255.20 205.97 254.58 205.95Q253.97 205.93 253.34 205.91Q252.71 205.90 252.12 205.90Q251.52 205.90 251.08 205.90L251.08 205.90Q250.23 205.90 249.47 205.91Q248.70 205.93 248.19 206.00L248.19 206.00L248.19 205.32Q249.25 205.15 250.16 204.37Q251.08 203.59 252.03 202.19L252.03 202.19M268.25 181.93L268.25 181.93L268.25 182.61Q267.20 182.74 266.28 183.54Q265.36 184.34 264.41 185.74L264.41 185.74L258.94 193.90Q258.94 193.90 258.83 193.45Q258.73 193.01 258.73 193.01L258.73 193.01L262.61 187.23Q263.83 185.40 264.04 184.41Q264.24 183.42 263.56 183.03Q262.88 182.64 261.45 182.61L261.45 182.61L261.45 181.93Q262.10 181.96 262.78 181.98Q263.46 182.00 264.12 182.01Q264.78 182.03 265.36 182.03L265.36 182.03Q266.25 182.03 266.99 182.00Q267.74 181.96 268.25 181.93" fill="#c82a2a" />
  <path d="M279.91 181.93L279.91 181.93Q286.00 181.93 288.96 184.97Q291.92 188.01 291.92 193.69L291.92 193.69Q291.92 197.40 290.47 200.17Q289.03 202.94 286.27 204.47Q283.52 206.00 279.61 206.00L279.61 206.00Q279.10 206.00 278.25 205.97Q277.40 205.93 276.50 205.91Q275.60 205.90 274.85 205.90L274.85 205.90Q273.66 205.90 272.50 205.91Q271.35 205.93 270.63 206.00L270.63 206.00L270.63 205.32Q271.79 205.25 272.38 205.05Q272.98 204.84 273.18 204.23Q273.39 203.62 273.39 202.40L273.39 202.40L273.39 185.53Q273.39 184.27 273.18 183.68Q272.98 183.08 272.38 182.86Q271.79 182.64 270.63 182.61L270.63 182.61L270.63 181.93Q271.35 181.96 272.50 182.01Q273.66 182.06 274.78 182.03L274.78 182.03Q275.97 182.00 277.47 181.96Q278.96 181.93 279.91 181.93M279.06 182.54L279.06 182.54Q277.50 182.54 277.02 183.12Q276.55 183.70 276.55 185.46L276.55 185.46L276.55 202.46Q276.55 204.23 277.04 204.81Q277.53 205.39 279.10 205.39L279.10 205.39Q282.80 205.39 284.84 204.04Q286.88 202.70 287.70 200.12Q288.52 197.53 288.52 193.83L288.52 193.83Q288.52 190.02 287.62 187.52Q286.71 185.02 284.66 183.78Q282.60 182.54 279.06 182.54M303.03 188.01L303.03 188.01Q306.03 188.01 307.71 189.83Q309.39 191.65 309.39 195.49L309.39 195.49L297.39 195.49L297.36 194.85L306.13 194.85Q306.20 193.18 305.86 191.77Q305.52 190.36 304.79 189.51Q304.05 188.66 302.90 188.66L302.90 188.66Q301.33 188.66 300.13 190.22Q298.92 191.79 298.68 195.19L298.68 195.19L298.78 195.32Q298.72 195.83 298.68 196.45Q298.65 197.06 298.65 197.67L298.65 197.67Q298.65 199.98 299.40 201.65Q300.14 203.31 301.35 204.18Q302.56 205.05 303.85 205.05L303.85 205.05Q304.87 205.05 305.79 204.72Q306.71 204.40 307.49 203.65Q308.27 202.91 308.85 201.65L308.85 201.65L309.53 201.92Q309.15 203.04 308.30 204.10Q307.45 205.15 306.16 205.81Q304.87 206.48 303.17 206.48L303.17 206.48Q300.72 206.48 298.97 205.35Q297.22 204.23 296.29 202.24Q295.35 200.25 295.35 197.67L295.35 197.67Q295.35 194.68 296.30 192.52Q297.25 190.36 298.99 189.19Q300.72 188.01 303.03 188.01M318.06 188.01L318.06 188.01Q319.42 188.01 320.37 188.46Q321.33 188.90 321.77 189.27L321.77 189.27Q322.89 190.19 323.13 188.05L323.13 188.05L323.91 188.05Q323.84 189.00 323.81 190.31Q323.77 191.62 323.77 193.83L323.77 193.83L322.99 193.83Q322.79 192.57 322.30 191.38Q321.80 190.19 320.85 189.43Q319.90 188.66 318.37 188.66L318.37 188.66Q317.18 188.66 316.38 189.32Q315.58 189.99 315.58 191.28L315.58 191.28Q315.58 192.30 316.19 193.03Q316.80 193.76 317.79 194.39Q318.78 195.02 319.93 195.77L319.93 195.77Q321.22 196.58 322.28 197.43Q323.33 198.28 323.96 199.30Q324.59 200.32 324.59 201.72L324.59 201.72Q324.59 203.28 323.77 204.33Q322.96 205.39 321.65 205.93Q320.34 206.48 318.78 206.48L318.78 206.48Q318.03 206.48 317.37 206.36Q316.70 206.24 316.09 206.00L316.09 206.00Q315.75 205.83 315.39 205.59Q315.04 205.35 314.70 205.08L314.70 205.08Q314.36 204.81 314.08 205.10Q313.81 205.39 313.68 206.24L313.68 206.24L312.89 206.24Q312.96 205.15 313.00 203.59Q313.03 202.02 313.03 199.44L313.03 199.44L313.81 199.44Q314.05 201.34 314.49 202.77Q314.93 204.20 315.89 205.00Q316.84 205.80 318.54 205.80L318.54 205.80Q319.22 205.80 319.92 205.49Q320.61 205.18 321.09 204.47Q321.56 203.76 321.56 202.57L321.56 202.57Q321.56 201.07 320.48 200.12Q319.39 199.17 317.72 198.11L317.72 198.11Q316.50 197.33 315.43 196.55Q314.36 195.77 313.69 194.78Q313.03 193.79 313.03 192.40L313.03 192.40Q313.03 190.87 313.73 189.90Q314.42 188.93 315.58 188.47Q316.74 188.01 318.06 188.01M331.05 179.99L331.05 179.99Q331.93 179.99 332.58 180.64Q333.23 181.28 333.23 182.17L333.23 182.17Q333.23 183.05 332.58 183.70Q331.93 184.34 331.05 184.34L331.05 184.34Q330.17 184.34 329.52 183.70Q328.87 183.05 328.87 182.17L328.87 182.17Q328.87 181.28 329.52 180.64Q330.17 179.99 331.05 179.99M332.82 188.12L332.82 188.12L332.82 202.84Q332.82 204.27 333.41 204.78Q334.01 205.29 335.40 205.29L335.40 205.29L335.40 206.00Q334.82 205.97 333.65 205.91Q332.48 205.86 331.29 205.86L331.29 205.86Q330.13 205.86 328.94 205.91Q327.75 205.97 327.17 206.00L327.17 206.00L327.17 205.29Q328.57 205.29 329.16 204.78Q329.76 204.27 329.76 202.84L329.76 202.84L329.76 192.20Q329.76 190.67 329.21 189.94Q328.67 189.20 327.17 189.20L327.17 189.20L327.17 188.49Q328.26 188.59 329.28 188.59L329.28 188.59Q330.27 188.59 331.17 188.47Q332.07 188.35 332.82 188.12M343.39 212.39L343.39 212.39Q341.59 212.39 339.99 212.02Q338.39 211.64 337.43 210.84Q336.46 210.05 336.46 208.82L336.46 208.82Q336.46 207.63 337.41 206.78Q338.36 205.93 339.99 205.49L339.99 205.49L340.20 206.03Q339.45 206.27 339.01 206.99Q338.56 207.70 338.56 208.58L338.56 208.58Q338.56 210.15 340.01 210.98Q341.45 211.81 343.77 211.81L343.77 211.81Q345.30 211.81 346.76 211.42Q348.22 211.03 349.17 210.11Q350.12 209.20 350.12 207.70L350.12 207.70Q350.12 206.58 349.33 205.85Q348.53 205.12 346.18 205.12L346.18 205.12L343.66 205.12Q342.58 205.12 341.56 204.95Q340.54 204.78 339.89 204.23Q339.24 203.69 339.24 202.57L339.24 202.57Q339.24 201.41 340.20 200.34Q341.15 199.27 343.70 198.15L343.70 198.15L344.11 198.45Q342.95 199.06 342.10 199.69Q341.25 200.32 341.25 201.17L341.25 201.17Q341.25 202.26 342.88 202.26L342.88 202.26L347.13 202.26Q348.56 202.26 349.77 202.67Q350.97 203.08 351.72 203.96Q352.47 204.84 352.47 206.27L352.47 206.27Q352.47 207.87 351.45 209.26Q350.43 210.66 348.41 211.53Q346.38 212.39 343.39 212.39M343.56 198.76L343.56 198.76Q341.90 198.76 340.54 198.20Q339.18 197.64 338.39 196.45Q337.61 195.26 337.61 193.39L337.61 193.39Q337.61 191.52 338.39 190.33Q339.18 189.14 340.54 188.57Q341.90 188.01 343.56 188.01L343.56 188.01Q345.26 188.01 346.61 188.57Q347.95 189.14 348.73 190.33Q349.51 191.52 349.51 193.39L349.51 193.39Q349.51 195.26 348.73 196.45Q347.95 197.64 346.61 198.20Q345.26 198.76 343.56 198.76M343.56 198.15L343.56 198.15Q344.85 198.15 345.59 197.13Q346.32 196.11 346.32 193.39L346.32 193.39Q346.32 190.67 345.59 189.65Q344.85 188.63 343.56 188.63L343.56 188.63Q342.30 188.63 341.56 189.65Q340.81 190.67 340.81 193.39L340.81 193.39Q340.81 196.11 341.56 197.13Q342.30 198.15 343.56 198.15M348.46 190.84L348.46 190.84L347.85 190.60Q348.32 189.44 349.48 188.56Q350.63 187.67 351.89 187.67L351.89 187.67Q352.78 187.67 353.32 188.17Q353.86 188.66 353.86 189.65L353.86 189.65Q353.86 190.70 353.30 191.13Q352.74 191.55 352.16 191.55L352.16 191.55Q351.65 191.55 351.21 191.19Q350.77 190.84 350.70 190.05Q350.63 189.27 351.18 188.05L351.18 188.05L351.62 188.15Q350.19 188.69 349.58 189.29Q348.97 189.88 348.46 190.84M366.51 188.01L366.51 188.01Q367.80 188.01 368.67 188.35Q369.54 188.69 370.12 189.31L370.12 189.31Q370.76 189.99 371.03 191.01Q371.31 192.03 371.31 193.76L371.31 193.76L371.31 202.84Q371.31 204.27 371.90 204.78Q372.50 205.29 373.89 205.29L373.89 205.29L373.89 206.00Q373.31 205.97 372.12 205.91Q370.93 205.86 369.81 205.86L369.81 205.86Q368.69 205.86 367.62 205.91Q366.55 205.97 366.00 206.00L366.00 206.00L366.00 205.29Q367.23 205.29 367.74 204.78Q368.25 204.27 368.25 202.84L368.25 202.84L368.25 193.01Q368.25 191.96 368.08 191.07Q367.91 190.19 367.31 189.65Q366.72 189.10 365.49 189.10L365.49 189.10Q364.06 189.10 362.99 189.92Q361.92 190.73 361.33 192.15Q360.73 193.56 360.73 195.29L360.73 195.29L360.73 202.84Q360.73 204.27 361.24 204.78Q361.75 205.29 362.98 205.29L362.98 205.29L362.98 206.00Q362.43 205.97 361.36 205.91Q360.29 205.86 359.17 205.86L359.17 205.86Q358.05 205.86 356.86 205.91Q355.67 205.97 355.09 206.00L355.09 206.00L355.09 205.29Q356.48 205.29 357.08 204.78Q357.67 204.27 357.67 202.84L357.67 202.84L357.67 192.20Q357.67 190.67 357.13 189.94Q356.58 189.20 355.09 189.20L355.09 189.20L355.09 188.49Q356.18 188.59 357.20 188.59L357.20 188.59Q358.18 188.59 359.08 188.47Q359.98 188.35 360.73 188.12L360.73 188.12L360.73 192.13Q361.62 189.82 363.20 188.91Q364.78 188.01 366.51 188.01" fill="#e0e0e0" />

  <!-- Cyber-terminal block with primary red accent border -->
  <line x1="48" y1="232" x2="48" y2="294" stroke="#c82a2a" stroke-width="3" />

  <!-- Static Terminal Line 1 in JetBrains Mono -->
  <text x="65" y="254" class="terminal-fixed">&gt; DISEÑO Y DESARROLLO DE EXPERIENCIAS DIGITALES.</text>

  <!-- Animated Terminal Line 2 in JetBrains Mono -->
  <text class="terminal-dynamic">
    <textPath href="#typePath0" xlink:href="#typePath0">&gt; EXPERIENCIAS DIGITALES FUNCIONALES Y ESTÉTICAS. █</textPath>
  </text>
  <text class="terminal-dynamic">
    <textPath href="#typePath1" xlink:href="#typePath1">&gt; WEB DEVELOPER @ DGTL · FULL STACK &amp; UX DESIGN. █</textPath>
  </text>
  <text class="terminal-dynamic">
    <textPath href="#typePath2" xlink:href="#typePath2">&gt; ESTUDIANTE EN 42 MADRID (C · SISTEMAS · LÓGICA). █</textPath>
  </text>
  <text class="terminal-dynamic">
    <textPath href="#typePath3" xlink:href="#typePath3">&gt; FUSIÓN DE BELLAS ARTES Y DESARROLLO MODERNO. █</textPath>
  </text>

  <!-- Bottom Terminal Status Bar in JetBrains Mono -->
  <text x="48" y="340" class="mono" font-size="9.5" fill="#666666" letter-spacing="1">+--- DATA_STREAM: OK --- MADRID, ES --- ALX.MTOS ---+</text>

  <!-- Bottom-right Badge: Ver. 14.33 in JetBrains Mono -->
  <rect x="710" y="348" width="110" height="20" fill="#121212" stroke="#c82a2a" stroke-width="1.2" />
  <text x="765" y="362" class="mono" font-size="9.5" font-weight="bold" fill="#c82a2a" text-anchor="middle" letter-spacing="1.5">Ver. 14.33</text>
</svg>